# xmcd
#
# Track frame offsets: 
#        150
#        21669
#        42056
#        52015
#        70219
#        89476
#
# Disc length: 1362 seconds
#
# Revision: 0
# Processed by: cddbd v1.5.2PL0 Copyright (c) Steve Scherf et al.
# Submitted via: ExactAudioCopyFreeDBPlugin 1.0
#
DISCID=51055006
DTITLE=Jessica Eve Lechner - Jessica Eve Lechner
DYEAR=2017
DGENRE=Americana
TTITLE0=Bring Me Back
TTITLE1=She's Everything
TTITLE2=Worn Out Strings
TTITLE3=Stronger Woman
TTITLE4=You're Here
TTITLE5=Livin' Angel
EXTD=
EXTT0=
EXTT1=
EXTT2=
EXTT3=
EXTT4=
EXTT5=
PLAYORDER=
